<?xml version="1.0" standalone="no"?>
<!DOCTYPE svg PUBLIC "-//W3C//DTD SVG 20010904//EN"
 "http://www.w3.org/TR/2001/REC-SVG-20010904/DTD/svg10.dtd">
<svg version="1.0" xmlns="http://www.w3.org/2000/svg"
 width="511.000000pt" height="508.000000pt" viewBox="0 0 511.000000 508.000000"
 preserveAspectRatio="xMidYMid meet">
<metadata>
Created by potrace 1.16, written by Peter Selinger 2001-2019
</metadata>
<g transform="translate(0.000000,508.000000) scale(0.100000,-0.100000)"
fill="#000000" stroke="none">
<path d="M0 2540 l0 -2540 2555 0 2555 0 0 2540 0 2540 -2555 0 -2555 0 0
-2540z m2757 1534 c283 -58 538 -249 683 -510 22 -38 56 -119 77 -180 l38
-109 0 -200 c-1 -189 -2 -205 -28 -289 -88 -283 -276 -506 -532 -631 -171 -84
-244 -100 -455 -100 -211 0 -284 16 -455 100 -256 125 -447 352 -531 632 -22
72 -27 115 -32 236 -5 164 6 258 43 367 134 394 455 652 875 704 62 8 238 -3
317 -20z m-1929 -2381 l3 -33 -140 0 -141 0 0 -104 c0 -57 3 -111 6 -120 5
-14 27 -16 141 -16 l134 0 -3 -32 -3 -33 -143 0 -144 0 -24 28 c-23 27 -24 34
-24 182 0 113 3 155 13 159 6 2 82 4 167 3 l155 -2 3 -32z m423 8 c24 -29 26
-119 4 -161 -16 -31 -60 -60 -92 -60 -12 -1 5 -22 52 -65 l70 -64 -50 0 c-47
0 -55 4 -119 59 -50 43 -78 60 -98 60 -25 0 -28 3 -28 35 l0 35 84 0 c102 0
128 15 130 76 l1 39 -120 0 -120 0 -3 -153 -3 -153 -32 3 -32 3 -3 172 c-2
149 0 173 14 188 15 14 38 16 171 13 149 -3 156 -4 174 -27z m159 -162 l0
-190 -32 3 -33 3 -3 175 c-1 96 0 180 2 187 3 7 19 13 36 13 l30 0 0 -191z
m420 156 l0 -35 -134 0 c-113 0 -135 -2 -140 -16 -8 -20 -8 -188 0 -208 5 -14
27 -16 140 -16 l134 0 0 -36 0 -35 -144 3 c-137 3 -146 4 -170 27 -25 24 -26
28 -26 156 0 190 4 193 208 194 l132 1 0 -35z m130 -155 l0 -190 -30 0 -30 0
0 190 0 190 30 0 30 0 0 -190z m317 183 c-4 -5 -47 -48 -95 -96 l-87 -88 93
-89 c50 -49 92 -92 92 -95 0 -3 -19 -5 -43 -5 -40 0 -47 5 -117 75 -47 47 -83
75 -99 77 -22 3 -26 8 -26 38 0 30 4 35 26 38 16 2 52 30 99 77 70 71 77 75
119 75 24 0 41 -3 38 -7z m588 -9 c13 -14 15 -41 13 -187 l-3 -172 -32 -3
c-33 -3 -33 -3 -33 42 l0 46 -119 0 -120 0 -3 -42 c-3 -40 -5 -43 -35 -46
l-33 -3 0 117 c0 133 17 186 71 225 44 31 74 37 181 38 76 1 100 -2 113 -15z
m145 -69 c6 -99 17 -107 133 -103 99 4 107 13 107 116 l0 73 33 -3 c30 -3 32
-5 35 -48 9 -121 -29 -188 -111 -197 l-47 -6 0 -64 0 -64 -32 3 c-33 3 -33 3
-36 66 -3 62 -3 62 -33 62 -42 0 -86 25 -104 60 -10 19 -15 57 -15 110 l0 81
33 -3 32 -3 5 -80z m714 79 c14 -5 16 -32 16 -190 l0 -184 -30 0 c-29 0 -30 2
-30 45 l0 45 -119 0 -120 0 -3 -42 c-3 -40 -5 -43 -35 -46 l-33 -3 0 117 c0
99 3 125 21 161 23 47 65 82 113 93 38 10 199 12 220 4z m166 -149 l0 -155
140 0 140 0 0 -35 0 -35 -154 0 c-85 0 -161 3 -170 6 -14 5 -16 32 -16 190 l0
184 30 0 30 0 0 -155z m684 149 c14 -5 16 -32 16 -190 l0 -184 -30 0 c-29 0
-30 2 -30 45 l0 45 -125 0 -125 0 0 -45 c0 -43 -1 -45 -30 -45 l-30 0 0 120
c0 99 3 128 19 158 24 47 50 70 98 88 38 13 208 19 237 8z m-3779 -184 l0 -35
-105 0 c-102 0 -105 1 -108 23 -7 50 0 53 110 50 l103 -3 0 -35z m2045 -497
c0 -73 -3 -94 -12 -85 -8 8 -17 8 -30 1 -13 -7 -27 -6 -46 3 -23 12 -27 19
-27 58 0 39 4 46 27 58 21 10 33 10 48 2 18 -10 20 -8 20 18 0 25 7 42 17 42
2 0 3 -44 3 -97z m-2020 62 c22 -20 27 -82 10 -115 -11 -21 -60 -40 -101 -40
l-29 0 0 91 0 92 50 -5 c28 -3 59 -13 70 -23z"/>
<path d="M2345 4056 c-204 -47 -351 -125 -495 -263 -148 -140 -249 -325 -291
-527 -26 -127 -22 -317 10 -438 135 -512 618 -827 1138 -743 388 63 700 351
805 743 29 111 35 301 13 416 -42 226 -139 402 -305 559 -124 116 -244 184
-425 238 -90 28 -357 36 -450 15z m259 -382 c20 -19 20 -25 1 -50 -8 -10 -15
-31 -15 -46 0 -19 -12 -35 -40 -58 l-40 -32 0 -104 0 -104 30 0 30 0 0 93 0
94 46 32 c25 18 49 44 54 57 12 30 55 33 69 5 14 -26 -9 -56 -37 -49 -15 4
-36 -5 -67 -28 l-45 -35 0 -84 0 -85 40 0 40 0 0 73 0 73 63 50 c69 55 83 90
51 125 -22 25 -8 54 26 54 34 0 49 -29 27 -53 -9 -10 -17 -35 -17 -54 0 -33
-7 -41 -65 -87 l-65 -51 0 -65 0 -65 30 0 c30 0 30 1 30 55 0 54 1 55 49 92
27 21 51 46 54 55 12 42 67 28 67 -18 0 -23 -30 -41 -50 -29 -5 3 -30 -8 -55
-26 -42 -31 -45 -35 -45 -80 l0 -47 126 -4 c111 -3 127 -5 140 -22 11 -16 14
-76 14 -318 l0 -298 43 0 c65 0 81 -27 56 -99 -22 -62 -13 -61 -609 -61 -596
0 -587 -1 -609 61 -25 72 -9 99 56 99 l43 0 0 298 c0 242 3 302 14 318 13 17
29 19 135 22 l121 4 0 43 c0 37 -5 47 -35 74 -20 17 -46 31 -59 31 -44 0 -61
50 -24 73 19 13 48 -6 48 -32 1 -9 21 -31 45 -49 44 -32 45 -34 45 -87 l0 -55
35 0 35 0 0 65 0 64 -65 53 c-58 46 -65 56 -65 87 0 19 -8 43 -17 53 -22 24
-7 53 27 53 34 0 49 -29 27 -53 -34 -37 -22 -67 48 -124 l65 -52 0 -73 0 -73
40 0 40 0 0 110 0 110 40 36 c42 38 50 63 25 84 -18 15 -19 42 -3 58 16 16 33
15 52 -4z"/>
<path d="M2062 3238 c-9 -9 -12 -90 -12 -305 l0 -293 490 0 490 0 0 293 c0
215 -3 296 -12 305 -17 17 -939 17 -956 0z m913 -293 l0 -250 -432 -3 -433 -2
0 255 0 255 433 -2 432 -3 0 -250z"/>
<path d="M2137 3174 c-4 -4 -7 -110 -7 -236 l0 -228 410 0 410 0 -2 233 -3
232 -85 0 -85 0 -3 -35 c-3 -32 1 -39 43 -68 29 -20 54 -31 64 -27 23 7 43
-17 39 -47 -4 -33 -48 -32 -65 2 -7 14 -32 39 -57 55 -41 27 -45 34 -48 75 -3
41 -5 45 -28 45 -23 0 -25 -4 -28 -57 l-3 -57 66 -48 c59 -42 65 -50 65 -82 0
-19 8 -43 17 -53 22 -24 7 -53 -27 -53 -34 0 -49 29 -27 53 34 38 22 67 -48
117 l-64 46 -3 67 -3 67 -35 0 -35 0 -3 -106 -3 -107 41 -32 c32 -26 40 -38
40 -65 0 -19 5 -37 10 -40 16 -10 12 -43 -7 -54 -34 -19 -76 34 -43 54 22 14
10 63 -22 91 l-33 27 -5 116 c-5 116 -5 116 -30 116 -25 0 -25 -1 -28 -102 -3
-100 -3 -103 -32 -123 -16 -11 -35 -33 -42 -48 -15 -31 -55 -37 -71 -10 -13
20 6 48 34 48 11 0 35 10 54 23 l35 22 -2 95 -3 95 -35 0 -35 0 -3 -62 -3 -62
-64 -51 c-70 -56 -82 -85 -48 -122 22 -24 7 -53 -27 -53 -34 0 -49 29 -27 53
9 10 17 34 17 53 0 30 7 40 65 84 l65 50 -3 55 c-2 54 -3 55 -32 55 -28 0 -30
-2 -33 -45 -3 -39 -8 -48 -42 -73 -22 -15 -45 -40 -52 -55 -17 -36 -61 -38
-66 -4 -4 29 16 54 38 47 9 -3 34 8 59 27 37 29 42 37 39 68 l-3 35 -75 3
c-42 1 -79 0 -83 -4z"/>
<path d="M1950 2577 c0 -70 -26 -67 592 -67 525 0 556 1 571 18 10 10 17 33
17 50 l0 32 -201 0 -202 0 -23 -25 c-22 -24 -27 -25 -153 -25 -126 0 -130 1
-149 25 l-20 25 -216 0 -216 0 0 -33z"/>
<path d="M2623 1640 c-39 -23 -53 -48 -53 -94 l0 -36 120 0 120 0 0 75 0 75
-77 0 c-60 0 -86 -5 -110 -20z"/>
<path d="M3493 1640 c-39 -23 -53 -48 -53 -94 l0 -36 120 0 120 0 0 75 0 75
-77 0 c-60 0 -86 -5 -110 -20z"/>
<path d="M4344 1644 c-36 -18 -52 -44 -56 -94 l-3 -35 120 0 120 0 3 73 3 72
-78 0 c-50 0 -89 -6 -109 -16z"/>
</g>
</svg>
